# Rhino

mtllib elip.mtl
g object_1
usemtl diffuse_Black
v -16.06867980957031 0.7347415089607239 0.4035335779190064
v -13.53465747833252 -3.291641712188721 0.4035335779190064
v -9.085031509399414 -5.455672264099121 0.4035335779190064
v -4.18433141708374 -6.565732002258301 0.4035335779190064
v 0.8333897590637207 -6.910390853881836 0.4035335779190064
v 5.808276176452637 -6.571727275848389 0.4035335779190064
v 10.69670486450195 -5.473659992218018 0.4035335779190064
v 15.26937961578369 -3.241609573364258 0.4035335779190064
v 17.73546028137207 0.7347415089607239 0.4035335779190064
v -13.53465747833252 -2.927815198898315 -0.9649045467376709
v -9.085031509399414 -4.896302700042725 -1.700388908386231
v -4.18433141708374 -5.90605640411377 -2.077662467956543
v 0.8333897590637207 -6.219572067260742 -2.194801092147827
v 5.808276176452637 -5.911509990692139 -2.079699993133545
v 10.69670486450195 -4.912664890289307 -1.706502318382263
v 15.26937961578369 -2.882303953170776 -0.9479002356529236
v -13.53465747833252 -1.996456027030945 -2.016973733901978
v -9.085031509399414 -3.464372873306274 -3.317905902862549
v -4.18433141708374 -4.21735429763794 -3.985231161117554
v 0.8333897590637207 -4.451145172119141 -4.192427158355713
v 5.808276176452637 -4.221420764923096 -3.988835334777832
v 10.69670486450195 -3.476574182510376 -3.3287193775177
v 15.26937961578369 -1.962517976760864 -1.986896276473999
v -13.53465747833252 -0.675352156162262 -2.682114839553833
v -9.085031509399414 -1.43322479724884 -4.340535640716553
v -4.18433141708374 -1.821982622146606 -5.191237926483154
v 0.8333897590637207 -1.942686915397644 -5.45536994934082
v 5.808276176452637 -1.824082255363464 -5.195832252502441
v 10.69670486450195 -1.439524292945862 -4.354320526123047
v 15.26937961578369 -0.6578301787376404 -2.64377236366272
v -13.53465747833252 0.7347415089607239 -2.890741586685181
v -9.085031509399414 0.7347415089607239 -4.661291599273682
v -4.18433141708374 0.7347415089607239 -5.569511413574219
v 0.8333897590637207 0.7347415089607239 -5.851501941680908
v 5.808276176452637 0.7347415089607239 -5.574416637420654
v 10.69670486450195 0.7347415089607239 -4.676008224487305
v 15.26937961578369 0.7347415089607239 -2.849806547164917
v -13.53465747833252 2.146508693695068 -2.681602478027344
v -9.085031509399414 2.905281066894531 -4.339747905731201
v -4.18433141708374 3.294500350952148 -5.190309047698975
v 0.8333897590637207 3.415347814559937 -5.454397201538086
v 5.808276176452637 3.296602487564087 -5.194902896881104
v 10.69670486450195 2.911587953567505 -4.353530406951904
v 15.26937961578369 2.128966093063355 -2.643266201019287
v -13.53465747833252 3.439181804656982 -2.037002325057983
v -9.085031509399414 4.892717838287354 -3.34869909286499
v -4.18433141708374 5.638322353363037 -4.021546363830566
v 0.8333897590637207 5.869822978973389 -4.230456352233887
v 5.808276176452637 5.642349243164063 -4.025180339813232
v 10.69670486450195 4.904799461364746 -3.359602212905884
v 15.26937961578369 3.405576229095459 -2.006675958633423
v -13.53465747833252 4.39577054977417 -0.9676383137702942
v -9.085031509399414 6.363436698913574 -1.704591989517212
v -4.18433141708374 7.372769355773926 -2.082619190216065
v 0.8333897590637207 7.686154365539551 -2.199991941452026
v 5.808276176452637 7.378220558166504 -2.08466100692749
v 10.69670486450195 6.379792213439941 -1.710717678070068
v 15.26937961578369 4.350278377532959 -0.9506000280380249
v -13.53465747833252 4.761124610900879 0.4035335779190064
v -9.085031509399414 6.925155162811279 0.4035335779190064
v -4.18433141708374 8.035214424133301 0.4035335779190064
v 0.8333897590637207 8.379874229431152 0.4035335779190064
v 5.808276176452637 8.041210174560547 0.4035335779190064
v 10.69670486450195 6.943142890930176 0.4035335779190064
v 15.26937961578369 4.711092472076416 0.4035335779190064
v -13.53465747833252 4.397298336029053 1.771971702575684
v -9.085031509399414 6.365785598754883 2.507456064224243
v -4.18433141708374 7.375539302825928 2.884729623794556
v 0.8333897590637207 7.6890549659729 3.00186824798584
v 5.808276176452637 7.380992889404297 2.886767148971558
v 10.69670486450195 6.382147789001465 2.513569355010986
v 15.26937961578369 4.351787090301514 1.754967331886292
v -13.53465747833252 3.465939044952393 2.82404088973999
v -9.085031509399414 4.933855533599854 4.124973297119141
v -4.18433141708374 5.686837196350098 4.792298316955566
v 0.8333897590637207 5.920628070831299 4.999494075775147
v 5.808276176452637 5.690904140472412 4.795902252197266
v 10.69670486450195 4.946057319641113 4.135786533355713
v 15.26937961578369 3.432000875473023 2.793963432312012
v -13.53465747833252 2.144835233688355 3.489181995391846
v -9.085031509399414 2.902707815170288 5.147602558135986
v -4.18433141708374 3.291465759277344 5.998304843902588
v 0.8333897590637207 3.412169933319092 6.262436866760254
v 5.808276176452637 3.293565273284912 6.002899646759033
v 10.69670486450195 2.90900731086731 5.161387443542481
v 15.26937961578369 2.127313137054443 3.450839519500732
v -13.53465747833252 0.7347415089607239 3.697808742523193
v -9.085031509399414 0.7347415089607239 5.468358516693115
v -4.18433141708374 0.7347415089607239 6.376578330993652
v 0.8333897590637207 0.7347415089607239 6.658568859100342
v 5.808276176452637 0.7347415089607239 6.381483554840088
v 10.69670486450195 0.7347415089607239 5.483075618743897
v 15.26937961578369 0.7347415089607239 3.65687370300293
v -13.53465747833252 -0.6770257949829102 3.488669633865356
v -9.085031509399414 -1.435798048973084 5.146814823150635
v -4.18433141708374 -1.825017213821411 5.997375965118408
v 0.8333897590637207 -1.945864796638489 6.26146411895752
v 5.808276176452637 -1.82711935043335 6.001969814300537
v 10.69670486450195 -1.442104935646057 5.160597801208496
v 15.26937961578369 -0.6594830751419067 3.4503333568573
v -13.53465747833252 -1.969698905944824 2.844069480895996
v -9.085031509399414 -3.423234701156616 4.155766487121582
v -4.18433141708374 -4.168839454650879 4.82861328125
v 0.8333897590637207 -4.400340080261231 5.037523746490479
v 5.808276176452637 -4.172866344451904 4.832247257232666
v 10.69670486450195 -3.435316562652588 4.166669368743897
v 15.26937961578369 -1.936093330383301 2.813743114471436
v -13.53465747833252 -2.926287412643433 1.774705529212952
v -9.085031509399414 -4.893953800201416 2.511659145355225
v -4.18433141708374 -5.903286457061768 2.889686346054077
v 0.8333897590637207 -6.216671466827393 3.007059097290039
v 5.808276176452637 -5.908737659454346 2.891728162765503
v 10.69670486450195 -4.910309314727783 2.517784833908081
v 15.26937961578369 -2.880795240402222 1.757667183876038
vt 0 0
vt 0 0.1800599545240402
vt 0 0.2978639602661133
vt 0 0.3989747166633606
vt 0 0.5
vt 0 0.6001756191253662
vt 0 0.7009148597717285
vt 0 0.8222899436950684
vt 0 1
vt 0.07055072486400604 0
vt 0.07055072486400604 0.1800599545240402
vt 0.07055072486400604 0.2978639602661133
vt 0.07055072486400604 0.3989747166633606
vt 0.07055072486400604 0.5
vt 0.07055072486400604 0.6001756191253662
vt 0.07055072486400604 0.7009148597717285
vt 0.07055072486400604 0.8222899436950684
vt 0.07055072486400604 1
vt 0.1310238391160965 0
vt 0.1310238391160965 0.1800599545240402
vt 0.1310238391160965 0.2978639602661133
vt 0.1310238391160965 0.3989747166633606
vt 0.1310238391160965 0.5
vt 0.1310238391160965 0.6001756191253662
vt 0.1310238391160965 0.7009148597717285
vt 0.1310238391160965 0.8222899436950684
vt 0.1310238391160965 1
vt 0.1905211210250855 0
vt 0.1905211210250855 0.1800599545240402
vt 0.1905211210250855 0.2978639602661133
vt 0.1905211210250855 0.3989747166633606
vt 0.1905211210250855 0.5
vt 0.1905211210250855 0.6001756191253662
vt 0.1905211210250855 0.7009148597717285
vt 0.1905211210250855 0.8222899436950684
vt 0.1905211210250855 1
vt 0.25 0
vt 0.25 0.1800599545240402
vt 0.25 0.2978639602661133
vt 0.25 0.3989747166633606
vt 0.25 0.5
vt 0.25 0.6001756191253662
vt 0.25 0.7009148597717285
vt 0.25 0.8222899436950684
vt 0.25 1
vt 0.3095490038394928 0
vt 0.3095490038394928 0.1800599545240402
vt 0.3095490038394928 0.2978639602661133
vt 0.3095490038394928 0.3989747166633606
vt 0.3095490038394928 0.5
vt 0.3095490038394928 0.6001756191253662
vt 0.3095490038394928 0.7009148597717285
vt 0.3095490038394928 0.8222899436950684
vt 0.3095490038394928 1
vt 0.3676164448261261 0
vt 0.3676164448261261 0.1800599545240402
vt 0.3676164448261261 0.2978639602661133
vt 0.3676164448261261 0.3989747166633606
vt 0.3676164448261261 0.5
vt 0.3676164448261261 0.6001756191253662
vt 0.3676164448261261 0.7009148597717285
vt 0.3676164448261261 0.8222899436950684
vt 0.3676164448261261 1
vt 0.4293071329593658 0
vt 0.4293071329593658 0.1800599545240402
vt 0.4293071329593658 0.2978639602661133
vt 0.4293071329593658 0.3989747166633606
vt 0.4293071329593658 0.5
vt 0.4293071329593658 0.6001756191253662
vt 0.4293071329593658 0.7009148597717285
vt 0.4293071329593658 0.8222899436950684
vt 0.4293071329593658 1
vt 0.5 0
vt 0.5 0.1800599545240402
vt 0.5 0.2978639602661133
vt 0.5 0.3989747166633606
vt 0.5 0.5
vt 0.5 0.6001756191253662
vt 0.5 0.7009148597717285
vt 0.5 0.8222899436950684
vt 0.5 1
vt 0.5705507397651672 0
vt 0.5705507397651672 0.1800599545240402
vt 0.5705507397651672 0.2978639602661133
vt 0.5705507397651672 0.3989747166633606
vt 0.5705507397651672 0.5
vt 0.5705507397651672 0.6001756191253662
vt 0.5705507397651672 0.7009148597717285
vt 0.5705507397651672 0.8222899436950684
vt 0.5705507397651672 1
vt 0.6310238242149353 0
vt 0.6310238242149353 0.1800599545240402
vt 0.6310238242149353 0.2978639602661133
vt 0.6310238242149353 0.3989747166633606
vt 0.6310238242149353 0.5
vt 0.6310238242149353 0.6001756191253662
vt 0.6310238242149353 0.7009148597717285
vt 0.6310238242149353 0.8222899436950684
vt 0.6310238242149353 1
vt 0.6905211210250855 0
vt 0.6905211210250855 0.1800599545240402
vt 0.6905211210250855 0.2978639602661133
vt 0.6905211210250855 0.3989747166633606
vt 0.6905211210250855 0.5
vt 0.6905211210250855 0.6001756191253662
vt 0.6905211210250855 0.7009148597717285
vt 0.6905211210250855 0.8222899436950684
vt 0.6905211210250855 1
vt 0.75 0
vt 0.75 0.1800599545240402
vt 0.75 0.2978639602661133
vt 0.75 0.3989747166633606
vt 0.75 0.5
vt 0.75 0.6001756191253662
vt 0.75 0.7009148597717285
vt 0.75 0.8222899436950684
vt 0.75 1
vt 0.8095490336418152 0
vt 0.8095490336418152 0.1800599545240402
vt 0.8095490336418152 0.2978639602661133
vt 0.8095490336418152 0.3989747166633606
vt 0.8095490336418152 0.5
vt 0.8095490336418152 0.6001756191253662
vt 0.8095490336418152 0.7009148597717285
vt 0.8095490336418152 0.8222899436950684
vt 0.8095490336418152 1
vt 0.8676164150238037 0
vt 0.8676164150238037 0.1800599545240402
vt 0.8676164150238037 0.2978639602661133
vt 0.8676164150238037 0.3989747166633606
vt 0.8676164150238037 0.5
vt 0.8676164150238037 0.6001756191253662
vt 0.8676164150238037 0.7009148597717285
vt 0.8676164150238037 0.8222899436950684
vt 0.8676164150238037 1
vt 0.9293071031570435 0
vt 0.9293071031570435 0.1800599545240402
vt 0.9293071031570435 0.2978639602661133
vt 0.9293071031570435 0.3989747166633606
vt 0.9293071031570435 0.5
vt 0.9293071031570435 0.6001756191253662
vt 0.9293071031570435 0.7009148597717285
vt 0.9293071031570435 0.8222899436950684
vt 0.9293071031570435 1
vt 1 0
vt 1 0.1800599545240402
vt 1 0.2978639602661133
vt 1 0.3989747166633606
vt 1 0.5
vt 1 0.6001756191253662
vt 1 0.7009148597717285
vt 1 0.8222899436950684
vt 1 1
vn -1 0 0
vn -0.5896558165550232 -0.807654619216919 0
vn -0.3114942908287048 -0.9502480030059815 0
vn -0.1392495632171631 -0.9902573227882385 0
vn 0 -1 0
vn 0.137972429394722 -0.9904360771179199 0
vn 0.3091182708740234 -0.9510235786437988 0
vn 0.5962769389152527 -0.8027787804603577 0
vn 1 0 0
vn -1 0 0
vn -0.5739197731018066 -0.7150683403015137 -0.3991157114505768
vn -0.3001596331596375 -0.832929790019989 -0.4649001359939575
vn -0.1337722539901733 -0.8653454780578613 -0.4829929769039154
vn 0 -0.873193621635437 -0.4873734414577484
vn 0.1325435191392899 -0.8654896020889282 -0.4830734133720398
vn 0.2978526651859283 -0.8335610032081604 -0.4652524590492249
vn 0.5805482268333435 -0.7109768390655518 -0.3968320488929749
vn 1 0 0
vn -1 0 0
vn -0.5442260503768921 -0.5056434869766235 -0.6694346070289612
vn -0.279645174741745 -0.5786716938018799 -0.766118586063385
vn -0.1239818707108498 -0.5980678200721741 -0.7917975783348084
vn 0 -0.6027180552482605 -0.7979542016983032
vn 0.1228401735424995 -0.5981533527374268 -0.7919108867645264
vn 0.2774681448936462 -0.5790522694587708 -0.7666224241256714
vn 0.5508283972740173 -0.5030396580696106 -0.6659873723983765
vn 1 0 0
vn -1 0 0
vn -0.5206508636474609 -0.2497505992650986 -0.8164234757423401
vn -0.264087438583374 -0.2821418344974518 -0.9223089814186096
vn -0.1166550144553185 -0.2905296683311462 -0.9497284293174744
vn 0 -0.29252690076828 -0.9562572836875916
vn 0.1155788972973824 -0.290566474199295 -0.9498487710952759
vn 0.2620128691196442 -0.2823072969913483 -0.9228498339653015
vn 0.5271968245506287 -0.2485727518796921 -0.8125731348991394
vn 1 0 0
vn -1 0 0
vn -0.5128121972084045 0 -0.8585007786750794
vn -0.2590445578098297 0 -0.9658653736114502
vn -0.1142970621585846 0 -0.9934465885162354
vn 0 0 -1
vn 0.113242119550705 0 -0.9935674071311951
vn 0.2570039033889771 0 -0.9664103388786316
vn 0.5193326473236084 0 -0.8545721769332886
vn 1 0 0
vn -1 0 0
vn -0.5206699371337891 0.2500561773777008 -0.8163177967071533
vn -0.2640997767448425 0.2824898958206177 -0.9221988916397095
vn -0.1166607886552811 0.2908889055252075 -0.9496177434921265
vn 0 0.2928887903690338 -0.9561465382575989
vn 0.1155846193432808 0.2909257709980011 -0.949738085269928
vn 0.2620251178741455 0.2826555669307709 -0.9227397441864014
vn 0.5272158980369568 0.2488767951726914 -0.8124676942825317
vn 1 0 0
vn -1 0 0
vn -0.543557345867157 0.500074565410614 -0.6741445064544678
vn -0.2791954278945923 0.5720809698104858 -0.7712154984474182
vn -0.1237689107656479 0.5911914110183716 -0.7969780564308167
vn 0 0.5957722663879395 -0.8031534552574158
vn 0.1226291134953499 0.591275691986084 -0.7970916628837585
vn 0.2770212888717651 0.5724560022354126 -0.7717210650444031
vn 0.5501585602760315 0.4975056946277618 -0.6706814765930176
vn 1 0 0
vn -1 0 0
vn -0.5738593339920044 0.7146947979927063 -0.3998709321022034
vn -0.3001167476177216 0.8324634432792664 -0.4657623469829559
vn -0.1337516307830811 0.8648511171340942 -0.483883261680603
vn 0 0.8726924061775208 -0.4882704019546509
vn 0.1325230747461319 0.8649951815605164 -0.483963817358017
vn 0.2978100478649139 0.8330941200256348 -0.4661152064800263
vn 0.580487847328186 0.7106062769889832 -0.3975834250450134
vn 1 0 0
vn -1 0 0
vn -0.5896558165550232 0.807654619216919 0
vn -0.3114942908287048 0.9502480030059815 0
vn -0.1392495632171631 0.9902573227882385 0
vn 0 1 0
vn 0.137972429394722 0.9904360771179199 0
vn 0.3091182708740234 0.9510235786437988 0
vn 0.5962769389152527 0.8027787804603577 0
vn 1 0 0
vn -1 0 0
vn -0.5739197731018066 0.7150683403015137 0.3991157114505768
vn -0.3001596331596375 0.832929790019989 0.4649001359939575
vn -0.1337722539901733 0.8653454780578613 0.4829929769039154
vn 0 0.873193621635437 0.4873734414577484
vn 0.1325435191392899 0.8654896020889282 0.4830734133720398
vn 0.2978526651859283 0.8335610032081604 0.4652524590492249
vn 0.5805482268333435 0.7109768390655518 0.3968320488929749
vn 1 0 0
vn -1 0 0
vn -0.5442260503768921 0.5056434869766235 0.6694346070289612
vn -0.279645174741745 0.5786716938018799 0.766118586063385
vn -0.1239818707108498 0.5980678200721741 0.7917975783348084
vn 0 0.6027180552482605 0.7979542016983032
vn 0.1228401735424995 0.5981533527374268 0.7919108867645264
vn 0.2774681448936462 0.5790522694587708 0.7666224241256714
vn 0.5508283972740173 0.5030396580696106 0.6659873723983765
vn 1 0 0
vn -1 0 0
vn -0.5206508636474609 0.2497505992650986 0.8164234757423401
vn -0.264087438583374 0.2821418344974518 0.9223089814186096
vn -0.1166550144553185 0.2905296683311462 0.9497284293174744
vn 0 0.29252690076828 0.9562572836875916
vn 0.1155788972973824 0.290566474199295 0.9498487710952759
vn 0.2620128691196442 0.2823072969913483 0.9228498339653015
vn 0.5271968245506287 0.2485727518796921 0.8125731348991394
vn 1 0 0
vn -1 0 0
vn -0.5128121972084045 0 0.8585007786750794
vn -0.2590445578098297 0 0.9658653736114502
vn -0.1142970621585846 0 0.9934465885162354
vn 0 0 1
vn 0.113242119550705 0 0.9935674071311951
vn 0.2570039033889771 0 0.9664103388786316
vn 0.5193326473236084 0 0.8545721769332886
vn 1 0 0
vn -1 0 0
vn -0.5206699371337891 -0.2500561773777008 0.8163177967071533
vn -0.2640997767448425 -0.2824898958206177 0.9221988916397095
vn -0.1166607886552811 -0.2908889055252075 0.9496177434921265
vn 0 -0.2928887903690338 0.9561465382575989
vn 0.1155846193432808 -0.2909257709980011 0.949738085269928
vn 0.2620251178741455 -0.2826555669307709 0.9227397441864014
vn 0.5272158980369568 -0.2488767951726914 0.8124676942825317
vn 1 0 0
vn -1 0 0
vn -0.543557345867157 -0.500074565410614 0.6741445064544678
vn -0.2791954278945923 -0.5720809698104858 0.7712154984474182
vn -0.1237689107656479 -0.5911914110183716 0.7969780564308167
vn 0 -0.5957722663879395 0.8031534552574158
vn 0.1226291134953499 -0.591275691986084 0.7970916628837585
vn 0.2770212888717651 -0.5724560022354126 0.7717210650444031
vn 0.5501585602760315 -0.4975056946277618 0.6706814765930176
vn 1 0 0
vn -1 0 0
vn -0.5738593339920044 -0.7146947979927063 0.3998709321022034
vn -0.3001167476177216 -0.8324634432792664 0.4657623469829559
vn -0.1337516307830811 -0.8648511171340942 0.483883261680603
vn 0 -0.8726924061775208 0.4882704019546509
vn 0.1325230747461319 -0.8649951815605164 0.483963817358017
vn 0.2978100478649139 -0.8330941200256348 0.4661152064800263
vn 0.580487847328186 -0.7106062769889832 0.3975834250450134
vn 1 0 0
vn -1 0 0
vn -0.5896558165550232 -0.807654619216919 0
vn -0.3114942908287048 -0.9502480030059815 0
vn -0.1392495632171631 -0.9902573227882385 0
vn 0 -1 0
vn 0.137972429394722 -0.9904360771179199 0
vn 0.3091182708740234 -0.9510235786437988 0
vn 0.5962769389152527 -0.8027787804603577 0
vn 1 0 0
f 10/11/11 2/2/2 1/1/1
f 11/12/12 3/3/3 2/2/2 10/11/11
f 12/13/13 4/4/4 3/3/3 11/12/12
f 13/14/14 5/5/5 4/4/4 12/13/13
f 14/15/15 6/6/6 5/5/5 13/14/14
f 15/16/16 7/7/7 6/6/6 14/15/15
f 16/17/17 8/8/8 7/7/7 15/16/16
f 9/18/18 8/8/8 16/17/17
f 17/20/20 10/11/11 1/10/10
f 18/21/21 11/12/12 10/11/11 17/20/20
f 19/22/22 12/13/13 11/12/12 18/21/21
f 20/23/23 13/14/14 12/13/13 19/22/22
f 21/24/24 14/15/15 13/14/14 20/23/23
f 22/25/25 15/16/16 14/15/15 21/24/24
f 23/26/26 16/17/17 15/16/16 22/25/25
f 9/27/27 16/17/17 23/26/26
f 24/29/29 17/20/20 1/19/19
f 25/30/30 18/21/21 17/20/20 24/29/29
f 26/31/31 19/22/22 18/21/21 25/30/30
f 27/32/32 20/23/23 19/22/22 26/31/31
f 28/33/33 21/24/24 20/23/23 27/32/32
f 29/34/34 22/25/25 21/24/24 28/33/33
f 30/35/35 23/26/26 22/25/25 29/34/34
f 9/36/36 23/26/26 30/35/35
f 31/38/38 24/29/29 1/28/28
f 32/39/39 25/30/30 24/29/29 31/38/38
f 33/40/40 26/31/31 25/30/30 32/39/39
f 34/41/41 27/32/32 26/31/31 33/40/40
f 35/42/42 28/33/33 27/32/32 34/41/41
f 36/43/43 29/34/34 28/33/33 35/42/42
f 37/44/44 30/35/35 29/34/34 36/43/43
f 9/45/45 30/35/35 37/44/44
f 38/47/47 31/38/38 1/37/37
f 39/48/48 32/39/39 31/38/38 38/47/47
f 40/49/49 33/40/40 32/39/39 39/48/48
f 41/50/50 34/41/41 33/40/40 40/49/49
f 42/51/51 35/42/42 34/41/41 41/50/50
f 43/52/52 36/43/43 35/42/42 42/51/51
f 44/53/53 37/44/44 36/43/43 43/52/52
f 9/54/54 37/44/44 44/53/53
f 45/56/56 38/47/47 1/46/46
f 46/57/57 39/48/48 38/47/47 45/56/56
f 47/58/58 40/49/49 39/48/48 46/57/57
f 48/59/59 41/50/50 40/49/49 47/58/58
f 49/60/60 42/51/51 41/50/50 48/59/59
f 50/61/61 43/52/52 42/51/51 49/60/60
f 51/62/62 44/53/53 43/52/52 50/61/61
f 9/63/63 44/53/53 51/62/62
f 52/65/65 45/56/56 1/55/55
f 53/66/66 46/57/57 45/56/56 52/65/65
f 54/67/67 47/58/58 46/57/57 53/66/66
f 55/68/68 48/59/59 47/58/58 54/67/67
f 56/69/69 49/60/60 48/59/59 55/68/68
f 57/70/70 50/61/61 49/60/60 56/69/69
f 58/71/71 51/62/62 50/61/61 57/70/70
f 9/72/72 51/62/62 58/71/71
f 59/74/74 52/65/65 1/64/64
f 60/75/75 53/66/66 52/65/65 59/74/74
f 61/76/76 54/67/67 53/66/66 60/75/75
f 62/77/77 55/68/68 54/67/67 61/76/76
f 63/78/78 56/69/69 55/68/68 62/77/77
f 64/79/79 57/70/70 56/69/69 63/78/78
f 65/80/80 58/71/71 57/70/70 64/79/79
f 9/81/81 58/71/71 65/80/80
f 66/83/83 59/74/74 1/73/73
f 67/84/84 60/75/75 59/74/74 66/83/83
f 68/85/85 61/76/76 60/75/75 67/84/84
f 69/86/86 62/77/77 61/76/76 68/85/85
f 70/87/87 63/78/78 62/77/77 69/86/86
f 71/88/88 64/79/79 63/78/78 70/87/87
f 72/89/89 65/80/80 64/79/79 71/88/88
f 9/90/90 65/80/80 72/89/89
f 73/92/92 66/83/83 1/82/82
f 74/93/93 67/84/84 66/83/83 73/92/92
f 75/94/94 68/85/85 67/84/84 74/93/93
f 76/95/95 69/86/86 68/85/85 75/94/94
f 77/96/96 70/87/87 69/86/86 76/95/95
f 78/97/97 71/88/88 70/87/87 77/96/96
f 79/98/98 72/89/89 71/88/88 78/97/97
f 9/99/99 72/89/89 79/98/98
f 80/101/101 73/92/92 1/91/91
f 81/102/102 74/93/93 73/92/92 80/101/101
f 82/103/103 75/94/94 74/93/93 81/102/102
f 83/104/104 76/95/95 75/94/94 82/103/103
f 84/105/105 77/96/96 76/95/95 83/104/104
f 85/106/106 78/97/97 77/96/96 84/105/105
f 86/107/107 79/98/98 78/97/97 85/106/106
f 9/108/108 79/98/98 86/107/107
f 87/110/110 80/101/101 1/100/100
f 88/111/111 81/102/102 80/101/101 87/110/110
f 89/112/112 82/103/103 81/102/102 88/111/111
f 90/113/113 83/104/104 82/103/103 89/112/112
f 91/114/114 84/105/105 83/104/104 90/113/113
f 92/115/115 85/106/106 84/105/105 91/114/114
f 93/116/116 86/107/107 85/106/106 92/115/115
f 9/117/117 86/107/107 93/116/116
f 94/119/119 87/110/110 1/109/109
f 95/120/120 88/111/111 87/110/110 94/119/119
f 96/121/121 89/112/112 88/111/111 95/120/120
f 97/122/122 90/113/113 89/112/112 96/121/121
f 98/123/123 91/114/114 90/113/113 97/122/122
f 99/124/124 92/115/115 91/114/114 98/123/123
f 100/125/125 93/116/116 92/115/115 99/124/124
f 9/126/126 93/116/116 100/125/125
f 101/128/128 94/119/119 1/118/118
f 102/129/129 95/120/120 94/119/119 101/128/128
f 103/130/130 96/121/121 95/120/120 102/129/129
f 104/131/131 97/122/122 96/121/121 103/130/130
f 105/132/132 98/123/123 97/122/122 104/131/131
f 106/133/133 99/124/124 98/123/123 105/132/132
f 107/134/134 100/125/125 99/124/124 106/133/133
f 9/135/135 100/125/125 107/134/134
f 108/137/137 101/128/128 1/127/127
f 109/138/138 102/129/129 101/128/128 108/137/137
f 110/139/139 103/130/130 102/129/129 109/138/138
f 111/140/140 104/131/131 103/130/130 110/139/139
f 112/141/141 105/132/132 104/131/131 111/140/140
f 113/142/142 106/133/133 105/132/132 112/141/141
f 114/143/143 107/134/134 106/133/133 113/142/142
f 9/144/144 107/134/134 114/143/143
f 2/146/146 108/137/137 1/136/136
f 3/147/147 109/138/138 108/137/137 2/146/146
f 4/148/148 110/139/139 109/138/138 3/147/147
f 5/149/149 111/140/140 110/139/139 4/148/148
f 6/150/150 112/141/141 111/140/140 5/149/149
f 7/151/151 113/142/142 112/141/141 6/150/150
f 8/152/152 114/143/143 113/142/142 7/151/151
f 9/153/153 114/143/143 8/152/152
