# Rhino

mtllib sper.mtl
g object_1
usemtl diffuse_Black
v -10.29376792907715 6.66361141204834 -7.593407154083252
v -7.316359043121338 6.34985876083374 -6.978282451629639
v -4.901516437530518 6.095388412475586 -5.316067695617676
v -3.302821159362793 5.926921367645264 -2.871198177337647
v -2.742173433303833 5.867841720581055 0
v -3.35391116142273 5.932304859161377 2.993895053863525
v -5.006972789764404 6.10650110244751 5.422108173370361
v -7.438380241394043 6.362717151641846 7.029655456542969
v -10.29376792907715 6.66361141204834 7.593407154083252
v -7.433846950531006 7.549194812774658 -6.978282451629639
v -5.114294052124023 8.267452239990234 -5.316067695617676
v -3.578683137893677 8.742959022521973 -2.871198177337647
v -3.04015851020813 8.909714698791504 0
v -3.627757072448731 8.727762222290039 2.993895053863525
v -5.215589046478272 8.236085891723633 5.422108173370361
v -7.551053047180176 7.512901782989502 7.029655456542969
v -7.985277652740479 8.569989204406738 -6.978282451629639
v -6.112964630126953 10.11616706848145 -5.316067695617676
v -4.873439788818359 11.13978099822998 -2.871198177337647
v -4.43874979019165 11.49875259399414 0
v -4.913051605224609 11.10706901550293 2.993895053863525
v -6.194728851318359 10.04864501953125 5.422108173370361
v -8.07988452911377 8.491861343383789 7.029655456542969
v -8.877499580383301 9.301336288452148 -6.978282451629639
v -7.728827953338623 11.44067478179932 -5.316067695617676
v -6.968373775482178 12.85697937011719 -2.871198177337647
v -6.701689720153809 13.35366439819336 0
v -6.99267578125 12.81171798706055 2.993895053863525
v -7.778990268707275 11.34724998474121 5.422108173370361
v -8.935541152954102 9.193235397338867 7.029655456542969
v -9.980015754699707 9.641020774841309 -6.978282451629639
v -9.725544929504395 12.05586338043213 -5.316067695617676
v -9.557078361511231 13.6545581817627 -2.871198177337647
v -9.497998237609863 14.21520614624023 0
v -9.562461853027344 13.6034688949585 2.993895053863525
v -9.736658096313477 11.95040702819824 5.422108173370361
v -9.992874145507813 9.519000053405762 7.029655456542969
v -11.17935180664063 9.523532867431641 -6.978282451629639
v -11.89760875701904 11.84308528900147 -5.316067695617676
v -12.37311553955078 13.37869644165039 -2.871198177337647
v -12.53987121582031 13.91722106933594 0
v -12.35791969299316 13.32962226867676 2.993895053863525
v -11.86624240875244 11.74179077148438 5.422108173370361
v -11.14305877685547 9.406326293945313 7.029655456542969
v -12.20014667510986 8.972102165222168 -6.978282451629639
v -13.74632358551025 10.84441471099854 -5.316067695617676
v -14.76993751525879 12.08394050598145 -2.871198177337647
v -15.12890911102295 12.518630027771 0
v -14.73722553253174 12.0443286895752 2.993895053863525
v -13.67880153656006 10.76265144348145 5.422108173370361
v -12.12201881408691 8.877494812011719 7.029655456542969
v -12.93149280548096 8.079879760742188 -6.978282451629639
v -15.07083225250244 9.228551864624023 -5.316067695617676
v -16.48713684082031 9.989006042480469 -2.871198177337647
v -16.98382186889648 10.25568962097168 0
v -16.44187545776367 9.964703559875488 2.993895053863525
v -14.97740650177002 9.178389549255371 5.422108173370361
v -12.82339286804199 8.021838188171387 7.029655456542969
v -13.27117729187012 6.97736406326294 -6.978282451629639
v -15.68601989746094 7.231834888458252 -5.316067695617676
v -17.28471565246582 7.400301456451416 -2.871198177337647
v -17.84536361694336 7.459381580352783 0
v -17.23362541198731 7.394917964935303 2.993895053863525
v -15.58056354522705 7.220722198486328 5.422108173370361
v -13.14915657043457 6.964505672454834 7.029655456542969
v -13.15368938446045 5.778028011322022 -6.978282451629639
v -15.47324275970459 5.059771060943604 -5.316067695617676
v -17.00885391235352 4.584264278411865 -2.871198177337647
v -17.54737854003906 4.417508602142334 0
v -16.95977973937988 4.599460124969482 2.993895053863525
v -15.37194728851318 5.091137409210205 5.422108173370361
v -13.03648281097412 5.814321041107178 7.029655456542969
v -12.60225868225098 4.757233619689941 -6.978282451629639
v -14.47457218170166 3.211056232452393 -5.316067695617676
v -15.71409702301025 2.187442302703857 -2.871198177337647
v -16.14878654479981 1.828470349311829 0
v -15.674485206604 2.220154285430908 2.993895053863525
v -14.39280796051025 3.27857780456543 5.422108173370361
v -12.50765228271484 4.835361003875732 7.029655456542969
v -11.71003723144531 4.02588701248169 -6.978282451629639
v -12.85870838165283 1.886547923088074 -5.316067695617676
v -13.61916255950928 0.470243513584137 -2.871198177337647
v -13.88584709167481 -0.0264412946999073 0
v -13.5948600769043 0.515504777431488 2.993895053863525
v -12.80854606628418 1.979972958564758 5.422108173370361
v -11.6519947052002 4.133986949920654 7.029655456542969
v -10.60752105712891 3.686202049255371 -6.978282451629639
v -10.86199188232422 1.271359801292419 -5.316067695617676
v -11.03045845031738 -0.3273356258869171 -2.871198177337647
v -11.08953857421875 -0.8879833221435547 0
v -11.02507495880127 -0.276245653629303 2.993895053863525
v -10.85087871551514 1.376816034317017 5.422108173370361
v -10.5946626663208 3.808223247528076 7.029655456542969
v -9.408185005187988 3.803690195083618 -6.978282451629639
v -8.68992805480957 1.484137415885925 -5.316067695617676
v -8.214421272277832 -0.05147374421358109 -2.871198177337647
v -8.047665596008301 -0.5899983048439026 0
v -8.229617118835449 -0.002399778226390481 2.993895053863525
v -8.721294403076172 1.585432291030884 5.422108173370361
v -9.444478034973145 3.920896530151367 7.029655456542969
v -8.38739013671875 4.355120658874512 -6.978282451629639
v -6.841213226318359 2.482807874679565 -5.316067695617676
v -5.817599296569824 1.243282794952393 -2.871198177337647
v -5.458627223968506 0.8085927963256836 0
v -5.850310802459717 1.282894611358643 2.993895053863525
v -6.908734798431397 2.564571857452393 5.422108173370361
v -8.465517997741699 4.449728012084961 7.029655456542969
v -7.656044006347656 5.247342586517334 -6.978282451629639
v -5.516704559326172 4.098670959472656 -5.316067695617676
v -4.100400447845459 3.338217258453369 -2.871198177337647
v -3.603715419769287 3.071532964706421 0
v -4.1456618309021 3.362519264221191 2.993895053863525
v -5.610129833221436 4.148833751678467 5.422108173370361
v -7.764143943786621 5.305384635925293 7.029655456542969
vt 0 0
vt 0 0.1290044486522675
vt 0 0.2531432211399078
vt 0 0.3765716254711151
vt 0 0.5
vt 0 0.6290044784545898
vt 0 0.7531432509422302
vt 0 0.8765715956687927
vt 0 1
vt 0.06450222432613373 0
vt 0.06450222432613373 0.1290044486522675
vt 0.06450222432613373 0.2531432211399078
vt 0.06450222432613373 0.3765716254711151
vt 0.06450222432613373 0.5
vt 0.06450222432613373 0.6290044784545898
vt 0.06450222432613373 0.7531432509422302
vt 0.06450222432613373 0.8765715956687927
vt 0.06450222432613373 1
vt 0.1265716105699539 0
vt 0.1265716105699539 0.1290044486522675
vt 0.1265716105699539 0.2531432211399078
vt 0.1265716105699539 0.3765716254711151
vt 0.1265716105699539 0.5
vt 0.1265716105699539 0.6290044784545898
vt 0.1265716105699539 0.7531432509422302
vt 0.1265716105699539 0.8765715956687927
vt 0.1265716105699539 1
vt 0.1882858127355576 0
vt 0.1882858127355576 0.1290044486522675
vt 0.1882858127355576 0.2531432211399078
vt 0.1882858127355576 0.3765716254711151
vt 0.1882858127355576 0.5
vt 0.1882858127355576 0.6290044784545898
vt 0.1882858127355576 0.7531432509422302
vt 0.1882858127355576 0.8765715956687927
vt 0.1882858127355576 1
vt 0.25 0
vt 0.25 0.1290044486522675
vt 0.25 0.2531432211399078
vt 0.25 0.3765716254711151
vt 0.25 0.5
vt 0.25 0.6290044784545898
vt 0.25 0.7531432509422302
vt 0.25 0.8765715956687927
vt 0.25 1
vt 0.3145022392272949 0
vt 0.3145022392272949 0.1290044486522675
vt 0.3145022392272949 0.2531432211399078
vt 0.3145022392272949 0.3765716254711151
vt 0.3145022392272949 0.5
vt 0.3145022392272949 0.6290044784545898
vt 0.3145022392272949 0.7531432509422302
vt 0.3145022392272949 0.8765715956687927
vt 0.3145022392272949 1
vt 0.3765716254711151 0
vt 0.3765716254711151 0.1290044486522675
vt 0.3765716254711151 0.2531432211399078
vt 0.3765716254711151 0.3765716254711151
vt 0.3765716254711151 0.5
vt 0.3765716254711151 0.6290044784545898
vt 0.3765716254711151 0.7531432509422302
vt 0.3765716254711151 0.8765715956687927
vt 0.3765716254711151 1
vt 0.4382857978343964 0
vt 0.4382857978343964 0.1290044486522675
vt 0.4382857978343964 0.2531432211399078
vt 0.4382857978343964 0.3765716254711151
vt 0.4382857978343964 0.5
vt 0.4382857978343964 0.6290044784545898
vt 0.4382857978343964 0.7531432509422302
vt 0.4382857978343964 0.8765715956687927
vt 0.4382857978343964 1
vt 0.5 0
vt 0.5 0.1290044486522675
vt 0.5 0.2531432211399078
vt 0.5 0.3765716254711151
vt 0.5 0.5
vt 0.5 0.6290044784545898
vt 0.5 0.7531432509422302
vt 0.5 0.8765715956687927
vt 0.5 1
vt 0.5645022392272949 0
vt 0.5645022392272949 0.1290044486522675
vt 0.5645022392272949 0.2531432211399078
vt 0.5645022392272949 0.3765716254711151
vt 0.5645022392272949 0.5
vt 0.5645022392272949 0.6290044784545898
vt 0.5645022392272949 0.7531432509422302
vt 0.5645022392272949 0.8765715956687927
vt 0.5645022392272949 1
vt 0.6265715956687927 0
vt 0.6265715956687927 0.1290044486522675
vt 0.6265715956687927 0.2531432211399078
vt 0.6265715956687927 0.3765716254711151
vt 0.6265715956687927 0.5
vt 0.6265715956687927 0.6290044784545898
vt 0.6265715956687927 0.7531432509422302
vt 0.6265715956687927 0.8765715956687927
vt 0.6265715956687927 1
vt 0.6882858276367188 0
vt 0.6882858276367188 0.1290044486522675
vt 0.6882858276367188 0.2531432211399078
vt 0.6882858276367188 0.3765716254711151
vt 0.6882858276367188 0.5
vt 0.6882858276367188 0.6290044784545898
vt 0.6882858276367188 0.7531432509422302
vt 0.6882858276367188 0.8765715956687927
vt 0.6882858276367188 1
vt 0.75 0
vt 0.75 0.1290044486522675
vt 0.75 0.2531432211399078
vt 0.75 0.3765716254711151
vt 0.75 0.5
vt 0.75 0.6290044784545898
vt 0.75 0.7531432509422302
vt 0.75 0.8765715956687927
vt 0.75 1
vt 0.8145022392272949 0
vt 0.8145022392272949 0.1290044486522675
vt 0.8145022392272949 0.2531432211399078
vt 0.8145022392272949 0.3765716254711151
vt 0.8145022392272949 0.5
vt 0.8145022392272949 0.6290044784545898
vt 0.8145022392272949 0.7531432509422302
vt 0.8145022392272949 0.8765715956687927
vt 0.8145022392272949 1
vt 0.8765715956687927 0
vt 0.8765715956687927 0.1290044486522675
vt 0.8765715956687927 0.2531432211399078
vt 0.8765715956687927 0.3765716254711151
vt 0.8765715956687927 0.5
vt 0.8765715956687927 0.6290044784545898
vt 0.8765715956687927 0.7531432509422302
vt 0.8765715956687927 0.8765715956687927
vt 0.8765715956687927 1
vt 0.9382858276367188 0
vt 0.9382858276367188 0.1290044486522675
vt 0.9382858276367188 0.2531432211399078
vt 0.9382858276367188 0.3765716254711151
vt 0.9382858276367188 0.5
vt 0.9382858276367188 0.6290044784545898
vt 0.9382858276367188 0.7531432509422302
vt 0.9382858276367188 0.8765715956687927
vt 0.9382858276367188 1
vt 1 0
vt 1 0.1290044486522675
vt 1 0.2531432211399078
vt 1 0.3765716254711151
vt 1 0.5
vt 1 0.6290044784545898
vt 1 0.7531432509422302
vt 1 0.8765715956687927
vt 1 1
vn 0 0 -1
vn 0.3921045362949371 -0.04131908714771271 -0.918992280960083
vn 0.71012282371521 -0.07483113557100296 -0.7000899314880371
vn 0.9206600785255432 -0.0970170795917511 -0.3781172633171082
vn 0.9944936037063599 -0.1047974824905396 0
vn 0.9139319062232971 -0.09630807489156723 0.394275575876236
vn 0.696234941482544 -0.07336766272783279 0.7140547037124634
vn 0.3760351836681366 -0.03962573409080505 0.9257577061653137
vn 0 0 1
vn 0 0 -1
vn 0.3766321241855621 0.1166253164410591 -0.918992280960083
vn 0.6821014285087585 0.2112148404121399 -0.7000899314880371
vn 0.8843309879302979 0.2738358378410339 -0.3781172633171082
vn 0.9552509784698486 0.2957964539527893 0
vn 0.8778682947158814 0.2718346416950226 0.394275575876236
vn 0.6687616109848023 0.2070841193199158 0.7140547037124634
vn 0.3611968755722046 0.1118457391858101 0.9257577061653137
vn 0 0 1
vn 0 0 -1
vn 0.3040125072002411 0.2510569989681244 -0.918992280960083
vn 0.5505833625793457 0.4546779990196228 -0.7000899314880371
vn 0.7138203382492065 0.589480996131897 -0.3781172633171082
vn 0.7710660696029663 0.6367551684379578 0
vn 0.7086037397384644 0.5851730704307556 0.394275575876236
vn 0.5398156046867371 0.4457858502864838 0.7140547037124634
vn 0.2915533781051636 0.2407681047916412 0.9257577061653137
vn 0 0 1
vn 0 0 -1
vn 0.1865129470825195 0.3473703265190125 -0.918992280960083
vn 0.3377851843833923 0.6291067004203796 -0.7000899314880371
vn 0.4379317760467529 0.8156243562698364 -0.3781172633171082
vn 0.4730522632598877 0.8810343742370606 0
vn 0.4347313642501831 0.8096637725830078 0.394275575876236
vn 0.3311791121959686 0.6168032884597778 0.7140547037124634
vn 0.1788692176342011 0.3331342935562134 0.9257577061653137
vn 0 0 1
vn 0 0 -1
vn 0.04131908714771271 0.3921045362949371 -0.918992280960083
vn 0.07483113557100296 0.71012282371521 -0.7000899314880371
vn 0.0970170795917511 0.9206600785255432 -0.3781172633171082
vn 0.1047974824905396 0.9944936037063599 0
vn 0.09630807489156723 0.9139319062232971 0.394275575876236
vn 0.07336766272783279 0.696234941482544 0.7140547037124634
vn 0.03962573409080505 0.3760351836681366 0.9257577061653137
vn 0 0 1
vn 0 0 -1
vn -0.1166253164410591 0.3766321241855621 -0.918992280960083
vn -0.2112148404121399 0.6821014285087585 -0.7000899314880371
vn -0.2738358378410339 0.8843309879302979 -0.3781172633171082
vn -0.2957964539527893 0.9552509784698486 0
vn -0.2718346416950226 0.8778682947158814 0.394275575876236
vn -0.2070841193199158 0.6687616109848023 0.7140547037124634
vn -0.1118457391858101 0.3611968755722046 0.9257577061653137
vn 0 0 1
vn 0 0 -1
vn -0.2510569989681244 0.3040125072002411 -0.918992280960083
vn -0.4546779990196228 0.5505833625793457 -0.7000899314880371
vn -0.589480996131897 0.7138203382492065 -0.3781172633171082
vn -0.6367551684379578 0.7710660696029663 0
vn -0.5851730704307556 0.7086037397384644 0.394275575876236
vn -0.4457858502864838 0.5398156046867371 0.7140547037124634
vn -0.2407681047916412 0.2915533781051636 0.9257577061653137
vn 0 0 1
vn 0 0 -1
vn -0.3473703265190125 0.1865129470825195 -0.918992280960083
vn -0.6291067004203796 0.3377851843833923 -0.7000899314880371
vn -0.8156243562698364 0.4379317760467529 -0.3781172633171082
vn -0.8810343742370606 0.4730522632598877 0
vn -0.8096637725830078 0.4347313642501831 0.394275575876236
vn -0.6168032884597778 0.3311791121959686 0.7140547037124634
vn -0.3331342935562134 0.1788692176342011 0.9257577061653137
vn 0 0 1
vn 0 0 -1
vn -0.3921045362949371 0.04131908714771271 -0.918992280960083
vn -0.71012282371521 0.07483113557100296 -0.7000899314880371
vn -0.9206600785255432 0.0970170795917511 -0.3781172633171082
vn -0.9944936037063599 0.1047974824905396 0
vn -0.9139319062232971 0.09630807489156723 0.394275575876236
vn -0.696234941482544 0.07336766272783279 0.7140547037124634
vn -0.3760351836681366 0.03962573409080505 0.9257577061653137
vn 0 0 1
vn 0 0 -1
vn -0.3766321241855621 -0.1166253164410591 -0.918992280960083
vn -0.6821014285087585 -0.2112148404121399 -0.7000899314880371
vn -0.8843309879302979 -0.2738358378410339 -0.3781172633171082
vn -0.9552509784698486 -0.2957964539527893 0
vn -0.8778682947158814 -0.2718346416950226 0.394275575876236
vn -0.6687616109848023 -0.2070841193199158 0.7140547037124634
vn -0.3611968755722046 -0.1118457391858101 0.9257577061653137
vn 0 0 1
vn 0 0 -1
vn -0.3040125072002411 -0.2510569989681244 -0.918992280960083
vn -0.5505833625793457 -0.4546779990196228 -0.7000899314880371
vn -0.7138203382492065 -0.589480996131897 -0.3781172633171082
vn -0.7710660696029663 -0.6367551684379578 0
vn -0.7086037397384644 -0.5851730704307556 0.394275575876236
vn -0.5398156046867371 -0.4457858502864838 0.7140547037124634
vn -0.2915533781051636 -0.2407681047916412 0.9257577061653137
vn 0 0 1
vn 0 0 -1
vn -0.1865129470825195 -0.3473703265190125 -0.918992280960083
vn -0.3377851843833923 -0.6291067004203796 -0.7000899314880371
vn -0.4379317760467529 -0.8156243562698364 -0.3781172633171082
vn -0.4730522632598877 -0.8810343742370606 0
vn -0.4347313642501831 -0.8096637725830078 0.394275575876236
vn -0.3311791121959686 -0.6168032884597778 0.7140547037124634
vn -0.1788692176342011 -0.3331342935562134 0.9257577061653137
vn 0 0 1
vn 0 0 -1
vn -0.04131908714771271 -0.3921045362949371 -0.918992280960083
vn -0.07483113557100296 -0.71012282371521 -0.7000899314880371
vn -0.0970170795917511 -0.9206600785255432 -0.3781172633171082
vn -0.1047974824905396 -0.9944936037063599 0
vn -0.09630807489156723 -0.9139319062232971 0.394275575876236
vn -0.07336766272783279 -0.696234941482544 0.7140547037124634
vn -0.03962573409080505 -0.3760351836681366 0.9257577061653137
vn 0 0 1
vn 0 0 -1
vn 0.1166253164410591 -0.3766321241855621 -0.918992280960083
vn 0.2112148404121399 -0.6821014285087585 -0.7000899314880371
vn 0.2738358378410339 -0.8843309879302979 -0.3781172633171082
vn 0.2957964539527893 -0.9552509784698486 0
vn 0.2718346416950226 -0.8778682947158814 0.394275575876236
vn 0.2070841193199158 -0.6687616109848023 0.7140547037124634
vn 0.1118457391858101 -0.3611968755722046 0.9257577061653137
vn 0 0 1
vn 0 0 -1
vn 0.2510569989681244 -0.3040125072002411 -0.918992280960083
vn 0.4546779990196228 -0.5505833625793457 -0.7000899314880371
vn 0.589480996131897 -0.7138203382492065 -0.3781172633171082
vn 0.6367551684379578 -0.7710660696029663 0
vn 0.5851730704307556 -0.7086037397384644 0.394275575876236
vn 0.4457858502864838 -0.5398156046867371 0.7140547037124634
vn 0.2407681047916412 -0.2915533781051636 0.9257577061653137
vn 0 0 1
vn 0 0 -1
vn 0.3473703265190125 -0.1865129470825195 -0.918992280960083
vn 0.6291067004203796 -0.3377851843833923 -0.7000899314880371
vn 0.8156243562698364 -0.4379317760467529 -0.3781172633171082
vn 0.8810343742370606 -0.4730522632598877 0
vn 0.8096637725830078 -0.4347313642501831 0.394275575876236
vn 0.6168032884597778 -0.3311791121959686 0.7140547037124634
vn 0.3331342935562134 -0.1788692176342011 0.9257577061653137
vn 0 0 1
vn 0 0 -1
vn 0.3921045362949371 -0.04131908714771271 -0.918992280960083
vn 0.71012282371521 -0.07483113557100296 -0.7000899314880371
vn 0.9206600785255432 -0.0970170795917511 -0.3781172633171082
vn 0.9944936037063599 -0.1047974824905396 0
vn 0.9139319062232971 -0.09630807489156723 0.394275575876236
vn 0.696234941482544 -0.07336766272783279 0.7140547037124634
vn 0.3760351836681366 -0.03962573409080505 0.9257577061653137
vn 0 0 1
f 10/11/11 2/2/2 1/1/1
f 11/12/12 3/3/3 2/2/2 10/11/11
f 12/13/13 4/4/4 3/3/3 11/12/12
f 13/14/14 5/5/5 4/4/4 12/13/13
f 14/15/15 6/6/6 5/5/5 13/14/14
f 15/16/16 7/7/7 6/6/6 14/15/15
f 16/17/17 8/8/8 7/7/7 15/16/16
f 9/18/18 8/8/8 16/17/17
f 17/20/20 10/11/11 1/10/10
f 18/21/21 11/12/12 10/11/11 17/20/20
f 19/22/22 12/13/13 11/12/12 18/21/21
f 20/23/23 13/14/14 12/13/13 19/22/22
f 21/24/24 14/15/15 13/14/14 20/23/23
f 22/25/25 15/16/16 14/15/15 21/24/24
f 23/26/26 16/17/17 15/16/16 22/25/25
f 9/27/27 16/17/17 23/26/26
f 24/29/29 17/20/20 1/19/19
f 25/30/30 18/21/21 17/20/20 24/29/29
f 26/31/31 19/22/22 18/21/21 25/30/30
f 27/32/32 20/23/23 19/22/22 26/31/31
f 28/33/33 21/24/24 20/23/23 27/32/32
f 29/34/34 22/25/25 21/24/24 28/33/33
f 30/35/35 23/26/26 22/25/25 29/34/34
f 9/36/36 23/26/26 30/35/35
f 31/38/38 24/29/29 1/28/28
f 32/39/39 25/30/30 24/29/29 31/38/38
f 33/40/40 26/31/31 25/30/30 32/39/39
f 34/41/41 27/32/32 26/31/31 33/40/40
f 35/42/42 28/33/33 27/32/32 34/41/41
f 36/43/43 29/34/34 28/33/33 35/42/42
f 37/44/44 30/35/35 29/34/34 36/43/43
f 9/45/45 30/35/35 37/44/44
f 38/47/47 31/38/38 1/37/37
f 39/48/48 32/39/39 31/38/38 38/47/47
f 40/49/49 33/40/40 32/39/39 39/48/48
f 41/50/50 34/41/41 33/40/40 40/49/49
f 42/51/51 35/42/42 34/41/41 41/50/50
f 43/52/52 36/43/43 35/42/42 42/51/51
f 44/53/53 37/44/44 36/43/43 43/52/52
f 9/54/54 37/44/44 44/53/53
f 45/56/56 38/47/47 1/46/46
f 46/57/57 39/48/48 38/47/47 45/56/56
f 47/58/58 40/49/49 39/48/48 46/57/57
f 48/59/59 41/50/50 40/49/49 47/58/58
f 49/60/60 42/51/51 41/50/50 48/59/59
f 50/61/61 43/52/52 42/51/51 49/60/60
f 51/62/62 44/53/53 43/52/52 50/61/61
f 9/63/63 44/53/53 51/62/62
f 52/65/65 45/56/56 1/55/55
f 53/66/66 46/57/57 45/56/56 52/65/65
f 54/67/67 47/58/58 46/57/57 53/66/66
f 55/68/68 48/59/59 47/58/58 54/67/67
f 56/69/69 49/60/60 48/59/59 55/68/68
f 57/70/70 50/61/61 49/60/60 56/69/69
f 58/71/71 51/62/62 50/61/61 57/70/70
f 9/72/72 51/62/62 58/71/71
f 59/74/74 52/65/65 1/64/64
f 60/75/75 53/66/66 52/65/65 59/74/74
f 61/76/76 54/67/67 53/66/66 60/75/75
f 62/77/77 55/68/68 54/67/67 61/76/76
f 63/78/78 56/69/69 55/68/68 62/77/77
f 64/79/79 57/70/70 56/69/69 63/78/78
f 65/80/80 58/71/71 57/70/70 64/79/79
f 9/81/81 58/71/71 65/80/80
f 66/83/83 59/74/74 1/73/73
f 67/84/84 60/75/75 59/74/74 66/83/83
f 68/85/85 61/76/76 60/75/75 67/84/84
f 69/86/86 62/77/77 61/76/76 68/85/85
f 70/87/87 63/78/78 62/77/77 69/86/86
f 71/88/88 64/79/79 63/78/78 70/87/87
f 72/89/89 65/80/80 64/79/79 71/88/88
f 9/90/90 65/80/80 72/89/89
f 73/92/92 66/83/83 1/82/82
f 74/93/93 67/84/84 66/83/83 73/92/92
f 75/94/94 68/85/85 67/84/84 74/93/93
f 76/95/95 69/86/86 68/85/85 75/94/94
f 77/96/96 70/87/87 69/86/86 76/95/95
f 78/97/97 71/88/88 70/87/87 77/96/96
f 79/98/98 72/89/89 71/88/88 78/97/97
f 9/99/99 72/89/89 79/98/98
f 80/101/101 73/92/92 1/91/91
f 81/102/102 74/93/93 73/92/92 80/101/101
f 82/103/103 75/94/94 74/93/93 81/102/102
f 83/104/104 76/95/95 75/94/94 82/103/103
f 84/105/105 77/96/96 76/95/95 83/104/104
f 85/106/106 78/97/97 77/96/96 84/105/105
f 86/107/107 79/98/98 78/97/97 85/106/106
f 9/108/108 79/98/98 86/107/107
f 87/110/110 80/101/101 1/100/100
f 88/111/111 81/102/102 80/101/101 87/110/110
f 89/112/112 82/103/103 81/102/102 88/111/111
f 90/113/113 83/104/104 82/103/103 89/112/112
f 91/114/114 84/105/105 83/104/104 90/113/113
f 92/115/115 85/106/106 84/105/105 91/114/114
f 93/116/116 86/107/107 85/106/106 92/115/115
f 9/117/117 86/107/107 93/116/116
f 94/119/119 87/110/110 1/109/109
f 95/120/120 88/111/111 87/110/110 94/119/119
f 96/121/121 89/112/112 88/111/111 95/120/120
f 97/122/122 90/113/113 89/112/112 96/121/121
f 98/123/123 91/114/114 90/113/113 97/122/122
f 99/124/124 92/115/115 91/114/114 98/123/123
f 100/125/125 93/116/116 92/115/115 99/124/124
f 9/126/126 93/116/116 100/125/125
f 101/128/128 94/119/119 1/118/118
f 102/129/129 95/120/120 94/119/119 101/128/128
f 103/130/130 96/121/121 95/120/120 102/129/129
f 104/131/131 97/122/122 96/121/121 103/130/130
f 105/132/132 98/123/123 97/122/122 104/131/131
f 106/133/133 99/124/124 98/123/123 105/132/132
f 107/134/134 100/125/125 99/124/124 106/133/133
f 9/135/135 100/125/125 107/134/134
f 108/137/137 101/128/128 1/127/127
f 109/138/138 102/129/129 101/128/128 108/137/137
f 110/139/139 103/130/130 102/129/129 109/138/138
f 111/140/140 104/131/131 103/130/130 110/139/139
f 112/141/141 105/132/132 104/131/131 111/140/140
f 113/142/142 106/133/133 105/132/132 112/141/141
f 114/143/143 107/134/134 106/133/133 113/142/142
f 9/144/144 107/134/134 114/143/143
f 2/146/146 108/137/137 1/136/136
f 3/147/147 109/138/138 108/137/137 2/146/146
f 4/148/148 110/139/139 109/138/138 3/147/147
f 5/149/149 111/140/140 110/139/139 4/148/148
f 6/150/150 112/141/141 111/140/140 5/149/149
f 7/151/151 113/142/142 112/141/141 6/150/150
f 8/152/152 114/143/143 113/142/142 7/151/151
f 9/153/153 114/143/143 8/152/152
