# Rhino

mtllib t2.mtl
g object_1
usemtl diffuse_Black
v -3.206912755966187 -3.160096406936646 0
v -3.206912755966187 -3.160096406936646 8.925768852233887
v 7.748088359832764 -3.160096406936646 0
v 7.748088359832764 -3.160096406936646 8.925768852233887
v 7.748088359832764 4.377318859100342 0
v 7.748088359832764 4.377318859100342 8.925768852233887
v -3.206912755966187 4.377318859100342 0
v -3.206912755966187 4.377318859100342 8.925768852233887
vt 0 0
vt 0 0.6859484314918518
vt 0.296202540397644 0
vt 0.296202540397644 0.6859484314918518
vt 0.296202540397644 0
vt 0.296202540397644 0.6859484314918518
vt 0.5 0
vt 0.5 0.6859484314918518
vt 0.5 0
vt 0.5 0.6859484314918518
vt 0.796202540397644 0
vt 0.796202540397644 0.6859484314918518
vt 0.796202540397644 0
vt 0.796202540397644 0.6859484314918518
vt 1 0
vt 1 0.6859484314918518
vt 0 1
vt 0.296202540397644 1
vt 0.296202540397644 0.6859490871429443
vt 0 0.6859490871429443
vt 0.703797459602356 0.6859490871429443
vt 1 0.6859490871429443
vt 1 1
vt 0.703797459602356 1
vn 0 -1 0
vn 0 -1 0
vn 0 -1 0
vn 0 -1 0
vn 1 0 0
vn 1 0 0
vn 1 0 0
vn 1 0 0
vn 0 1 0
vn 0 1 0
vn 0 1 0
vn 0 1 0
vn -1 0 0
vn -1 0 0
vn -1 0 0
vn -1 0 0
vn 0 0 -1
vn 0 0 -1
vn 0 0 -1
vn 0 0 -1
vn 0 0 1
vn 0 0 1
vn 0 0 1
vn 0 0 1
f 3/18/18 1/17/17 7/20/20 5/19/19
f 8/24/24 2/21/21 4/22/22 6/23/23
f 1/1/1 3/3/3 4/4/4 2/2/2
f 3/5/5 5/7/7 6/8/8 4/6/6
f 5/9/9 7/11/11 8/12/12 6/10/10
f 7/13/13 1/15/15 2/16/16 8/14/14
